<?xml version="1.0" standalone="no"?>
<!DOCTYPE svg PUBLIC "-//W3C//DTD SVG 20010904//EN"
 "http://www.w3.org/TR/2001/REC-SVG-20010904/DTD/svg10.dtd">
<svg version="1.0" xmlns="http://www.w3.org/2000/svg"
 width="795.000000pt" height="759.000000pt" viewBox="0 0 795.000000 759.000000"
 preserveAspectRatio="xMidYMid meet">
<metadata>
Created by potrace 1.10, written by Peter Selinger 2001-2011
</metadata>
<g transform="translate(0.000000,759.000000) scale(0.100000,-0.100000)"
fill="#6610f2" stroke="none">
<path d="M3550 6395 c-19 -7 -46 -14 -59 -14 -13 -1 -44 -8 -70 -16 -25 -8
-73 -23 -106 -34 -103 -33 -215 -80 -340 -142 -267 -133 -456 -269 -666 -478
-136 -137 -212 -230 -325 -399 -76 -113 -224 -392 -224 -421 0 -7 -7 -25 -15
-39 -18 -33 -93 -260 -104 -316 -5 -23 -13 -61 -19 -86 -40 -164 -47 -244 -46
-535 1 -198 5 -306 14 -340 6 -27 16 -77 20 -110 13 -105 115 -452 141 -480 5
-5 9 -15 9 -23 0 -8 28 -71 61 -140 105 -213 208 -370 355 -541 246 -284 494
-477 820 -637 73 -35 138 -64 146 -64 8 0 18 -4 24 -9 21 -21 365 -126 449
-138 17 -2 68 -11 115 -20 110 -22 631 -24 725 -4 33 8 85 17 115 21 69 9 260
60 365 98 597 215 1059 604 1376 1157 46 81 104 203 142 303 10 23 24 59 32
80 12 32 31 95 91 308 8 28 14 62 14 75 0 13 7 58 17 99 13 60 16 134 17 365
1 291 -6 371 -46 535 -6 25 -14 64 -19 86 -9 47 -52 189 -76 249 -8 22 -22 58
-31 80 -195 506 -593 967 -1083 1254 -75 44 -268 134 -354 166 -55 20 -108 41
-118 46 -10 6 -37 14 -60 18 -23 5 -55 14 -72 19 -102 35 -120 36 -650 38
-428 2 -537 0 -565 -11z m879 -61 c178 -29 374 -76 491 -119 349 -128 638
-313 900 -575 205 -205 343 -397 466 -650 20 -41 41 -84 46 -94 6 -11 14 -31
18 -45 5 -14 18 -51 30 -81 12 -30 26 -68 30 -85 5 -16 18 -61 30 -100 78
-259 109 -636 76 -918 -17 -148 -44 -291 -77 -402 -11 -38 -24 -83 -29 -100
-4 -16 -18 -55 -30 -85 -12 -30 -25 -67 -30 -81 -4 -14 -12 -34 -18 -45 -5
-10 -26 -53 -46 -94 -20 -41 -52 -102 -71 -135 -19 -33 -38 -67 -42 -75 -45
-94 -246 -342 -390 -481 -146 -140 -268 -233 -468 -356 -27 -17 -272 -137
-315 -155 -40 -16 -221 -74 -295 -93 -440 -117 -991 -93 -1410 62 -22 9 -58
22 -80 30 -95 35 -349 168 -455 239 -365 244 -644 561 -835 949 -99 203 -121
261 -180 477 -70 261 -93 605 -60 878 16 123 46 286 64 345 5 17 17 57 26 90
10 33 24 78 32 100 8 22 22 58 30 80 31 85 166 345 227 438 148 224 375 466
576 613 108 79 126 91 210 141 147 87 254 138 435 206 110 41 299 90 415 108
41 6 93 15 115 19 80 15 513 11 614 -6z"/>
<path d="M4173 5053 c-10 -4 -13 -147 -13 -669 0 -584 2 -665 15 -670 8 -4 22
-1 30 6 12 10 15 64 17 329 l3 316 365 5 365 5 0 25 0 25 -365 5 -365 5 0 280
0 280 370 5 c352 5 370 6 373 24 2 10 -2 22 -10 27 -14 9 -764 11 -785 2z"/>
<path d="M4027 5044 c-4 -4 -7 -148 -7 -320 0 -300 -1 -314 -19 -324 -13 -6
-147 -10 -369 -10 -311 0 -351 -2 -356 -16 -3 -9 -4 -20 0 -25 3 -5 159 -9
363 -9 264 0 360 -3 369 -12 15 -15 17 -544 2 -553 -5 -3 -169 -6 -363 -6
-371 1 -399 -3 -384 -43 6 -15 42 -16 409 -14 l403 3 0 665 c0 662 0 665 -20
668 -12 2 -24 0 -28 -4z"/>
<path d="M2786 3362 c-5 -8 -8 -204 -7 -454 1 -92 5 -148 11 -148 6 0 10 51
10 134 0 98 3 136 13 145 8 6 74 12 165 13 203 4 204 22 1 25 -83 1 -157 4
-166 7 -12 5 -14 27 -11 130 2 69 6 127 10 131 3 4 77 6 162 6 102 -1 156 2
156 9 0 12 -336 14 -344 2z"/>
<path d="M4337 3358 c-16 -12 -17 -40 -15 -313 l3 -300 100 -2 c58 -2 123 3
155 11 53 12 51 13 -67 8 -103 -4 -126 -2 -148 12 l-25 16 0 261 c0 160 4 268
10 280 9 16 22 19 90 19 43 0 82 5 85 10 9 15 -167 13 -188 -2z"/>
<path d="M4984 3358 c-6 -9 -8 -358 -4 -610 0 -13 191 -8 250 6 52 13 48 13
-75 8 -114 -4 -133 -3 -148 12 -15 16 -17 45 -17 271 0 141 4 265 10 279 9 25
13 26 89 26 44 0 83 5 86 10 4 6 -28 10 -89 10 -63 0 -97 -4 -102 -12z"/>
<path d="M3476 3334 c-10 -26 -7 -558 4 -574 6 -10 10 89 10 288 0 166 -2 302
-4 302 -2 0 -7 -7 -10 -16z"/>
<path d="M3672 3058 l2 -293 6 260 c4 229 7 260 21 263 20 4 58 -34 72 -70 3
-10 11 -18 17 -18 5 0 10 -5 10 -10 0 -11 33 -60 62 -94 10 -11 30 -38 45 -60
16 -23 36 -50 46 -61 10 -11 30 -39 44 -62 14 -24 29 -43 34 -43 5 0 9 -5 9
-10 0 -21 75 -110 92 -110 17 0 18 19 18 301 0 197 -3 298 -10 294 -6 -4 -10
-103 -10 -265 0 -142 -4 -261 -8 -264 -9 -5 -24 10 -86 89 -22 28 -42 52 -46
55 -3 3 -22 28 -40 55 -93 136 -245 330 -261 333 -18 3 -19 -8 -17 -290z"/>
<path d="M4580 3341 c0 -11 25 -21 51 -21 23 0 25 15 3 24 -23 9 -54 7 -54 -3z"/>
<path d="M5220 3341 c0 -11 25 -21 51 -21 11 0 27 -6 36 -12 33 -26 83 -82 83
-93 0 -6 6 -17 13 -23 34 -34 35 -244 1 -283 -8 -8 -14 -20 -14 -27 0 -6 -24
-31 -52 -56 -54 -47 -51 -63 5 -24 39 26 60 51 88 103 19 34 22 56 22 153 0
90 -3 116 -16 130 -10 10 -17 23 -17 29 0 14 -87 103 -101 103 -6 0 -17 7 -25
15 -17 16 -74 21 -74 6z"/>
<path d="M3278 3049 c-2 -154 0 -283 5 -286 4 -2 7 124 7 281 0 157 -2 286 -5
286 -2 0 -6 -126 -7 -281z"/>
<path d="M4660 3309 c0 -6 8 -13 18 -16 18 -5 65 -65 94 -122 26 -52 25 -193
-2 -246 -29 -57 -78 -112 -106 -119 -29 -8 -32 -26 -5 -26 25 0 119 95 128
129 3 14 12 35 19 46 19 26 19 164 0 190 -7 11 -16 32 -19 46 -4 14 -29 49
-56 77 -48 50 -71 64 -71 41z"/>
</g>
</svg>
