<?xml version="1.0" standalone="no"?>
<!DOCTYPE svg PUBLIC "-//W3C//DTD SVG 20010904//EN"
 "http://www.w3.org/TR/2001/REC-SVG-20010904/DTD/svg10.dtd">
<svg version="1.0" xmlns="http://www.w3.org/2000/svg"
 width="265.000000pt" height="253.000000pt" viewBox="0 0 265.000000 253.000000"
 preserveAspectRatio="xMidYMid meet">
<metadata>
Created by potrace 1.10, written by Peter Selinger 2001-2011
</metadata>
<g transform="translate(0.000000,253.000000) scale(0.050000,-0.050000)"
fill="#6610f2" stroke="none">
<path d="M304 4985 c-97 -114 -98 -115 -112 -160 -30 -92 -35 -147 -44 -435
-5 -165 -10 -332 -12 -371 -2 -39 3 -81 11 -94 7 -12 7 -26 -2 -32 -18 -11
-15 -580 3 -610 7 -11 6 -24 -3 -30 -18 -11 -15 -580 3 -610 7 -11 4 -26 -6
-32 -19 -11 -18 -23 9 -131 7 -29 5 -40 -4 -27 -21 28 -21 -414 -1 -447 8 -13
6 -29 -4 -35 -19 -12 -11 -100 12 -138 7 -10 4 -14 -6 -8 -20 12 -20 -430 0
-462 7 -11 4 -26 -6 -32 -19 -12 -11 -100 12 -138 7 -11 2 -13 -12 -4 -17 10
-20 -1 -11 -42 7 -32 16 -169 20 -307 5 -137 14 -281 22 -320 7 -38 14 -88 14
-110 0 -22 17 -52 37 -66 20 -15 31 -35 25 -45 -6 -11 -2 -19 10 -19 11 0 21
-10 21 -22 0 -31 105 -138 135 -138 14 0 25 -10 25 -22 0 -12 13 -17 29 -11
15 6 32 1 36 -11 4 -12 51 -26 106 -31 54 -5 102 -17 106 -27 3 -10 23 -9 43
2 24 13 42 13 49 1 16 -26 3411 -27 3411 0 0 10 10 19 21 19 12 0 17 -8 11
-17 -15 -24 493 -11 605 16 51 13 99 20 107 17 8 -3 27 11 42 32 18 24 38 32
54 22 17 -11 21 -8 12 7 -9 14 6 31 37 43 29 11 58 35 65 55 7 19 27 50 44 69
18 19 43 48 57 64 41 50 36 4489 -5 4505 -16 6 -30 26 -30 44 -1 18 -23 54
-50 80 -28 26 -46 54 -41 62 5 8 -42 16 -105 18 l-114 4 82 -50 c91 -55 179
-170 208 -273 38 -129 26 -4194 -12 -4305 -43 -125 -179 -260 -304 -302 -155
-51 -4283 -38 -4379 14 -83 46 -194 157 -240 240 -35 66 -68 4075 -35 4308 16
111 115 256 217 317 l83 50 -91 0 c-81 0 -99 -9 -155 -75z"/>
<path d="M2250 4241 c-993 -294 -1482 -1428 -1021 -2371 512 -1046 1929 -1262
2734 -416 866 911 471 2413 -733 2788 -169 53 -801 53 -980 -1z m890 -52
c1033 -263 1542 -1492 990 -2387 -819 -1327 -2794 -907 -2992 637 -141 1101
918 2027 2002 1750z"/>
<path d="M2680 3160 l0 -220 -250 0 c-218 0 -250 -4 -250 -33 0 -29 28 -31
250 -23 l250 10 0 -187 0 -187 -262 0 c-200 0 -259 -6 -253 -25 11 -35 92 -41
350 -25 l225 14 0 448 c0 385 -4 448 -30 448 -25 0 -30 -38 -30 -220z"/>
<path d="M2780 2962 c0 -230 -5 -433 -12 -450 -8 -21 -1 -32 20 -32 27 0 32
31 32 220 l0 220 250 0 c153 0 250 8 250 20 0 12 -97 20 -250 20 l-250 0 0
186 0 186 253 -1 c186 -1 256 6 262 24 6 19 -57 25 -273 25 l-282 0 0 -418z"/>
<path d="M1840 2040 c0 -133 8 -220 20 -220 11 0 20 45 20 100 l0 100 109 0
c60 0 114 9 121 20 8 12 -33 20 -109 20 l-121 0 0 80 0 80 120 0 c67 0 120 9
120 20 0 11 -60 20 -140 20 l-140 0 0 -220z"/>
<path d="M2180 2040 c0 -133 8 -220 20 -220 12 0 20 87 20 220 0 133 -8 220
-20 220 -12 0 -20 -87 -20 -220z"/>
<path d="M2300 2040 c0 -162 6 -221 24 -215 31 10 30 420 -2 431 -15 5 -22
-62 -22 -216z"/>
<path d="M2440 2040 c0 -267 36 -298 44 -38 l6 181 128 -181 c160 -228 162
-228 162 38 0 262 -36 300 -44 46 l-6 -174 -126 174 c-160 221 -164 219 -164
-46z"/>
<path d="M2880 2038 l0 -223 123 9 c327 24 297 436 -32 436 l-91 0 0 -222z
m251 133 c116 -116 34 -311 -130 -311 l-81 0 0 180 0 180 81 0 c59 0 94 -13
130 -49z"/>
<path d="M3300 2040 l0 -220 112 0 c101 0 119 7 180 68 153 153 46 372 -180
372 l-112 0 0 -220z m228 157 c177 -80 89 -337 -117 -337 l-71 0 0 167 c0 91
6 172 13 180 21 21 120 15 175 -10z"/>
</g>
</svg>
